<?xml version="1.0" encoding="UTF-8" standalone="no"?>
<svg
   xmlns="http://www.w3.org/2000/svg"
   width="1024"
   height="1024">
 <g>
  <title>Parasoft</title>
  <linearGradient id="color" gradientUnits="userSpaceOnUse">
    <stop stop-color="#0057a6"/>
  </linearGradient>
  <g>
   <rect height="768" width="768" y="128" x="128" stroke-width="64" stroke="url(#color)" fill="none"/>
   <rect height="256" width="256" y="0" x="0" fill="url(#color)"/>
   <rect height="256" width="256" y="0" x="768" fill="url(#color)"/>
   <rect height="256" width="256" y="768" x="768" fill="url(#color)"/>
   <rect height="256" width="256" y="768" x="0" fill="url(#color)"/>
  </g>
  <g transform="rotate(-5 512 512)">
   <rect height="320" width="320" y="352" x="352" stroke-width="32" stroke="url(#color)" fill="none"/>
   <rect height="128" width="128" y="288" x="288" fill="url(#color)"/>
   <rect height="128" width="128" y="288" x="608" fill="url(#color)"/>
   <rect height="128" width="128" y="608" x="608" fill="url(#color)"/>
   <rect height="128" width="128" y="608" x="288" fill="url(#color)"/>
  </g>
  <g>
   <line x1="128" y1="128" x2="663.60108830151129549868620773424" y2="343.60108830151129549868620773424" stroke-width="32" stroke="url(#color)"/>
   <line x1="896" y1="128" x2="680.39891169848870450131379226576" y2="663.60108830151129549868620773424" stroke-width="32" stroke="url(#color)"/>
   <line x1="896" y1="896" x2="360.39891169848870450131379226576" y2="680.39891169848870450131379226576" stroke-width="32" stroke="url(#color)"/>
   <line x1="128" y1="896" x2="343.60108830151129549868620773424" y2="360.39891169848870450131379226576" stroke-width="32" stroke="url(#color)"/>
  </g>
 </g>
</svg>
